<svg xmlns="http://www.w3.org/2000/svg" viewBox="0 0 240 160" fill="none" stroke="#5b8dff" stroke-width="3" stroke-linecap="round" stroke-linejoin="round">
  <circle cx="120" cy="80" r="46" fill="#5b8dff" fill-opacity=".08"/>
  <!-- tai nghe -->
  <path d="M92 82v-6a28 28 0 0 1 56 0v6"/>
  <rect x="86" y="80" width="12" height="20" rx="4" fill="#5b8dff" fill-opacity=".25"/>
  <rect x="142" y="80" width="12" height="20" rx="4" fill="#5b8dff" fill-opacity=".25"/>
  <!-- bong bóng thoại -->
  <path d="M104 96h32a8 8 0 0 1 8 8v14a8 8 0 0 1-8 8h-18l-8 7v-7h-6a8 8 0 0 1-8-8v-14a8 8 0 0 1 8-8z" fill="#5b8dff" fill-opacity=".14"/>
  <path d="M112 108h16M112 116h10"/>
  <!-- sóng âm -->
  <path d="M40 80h6M52 72v16M64 66v28M28 74v12" stroke-opacity=".55"/>
  <path d="M200 80h-6M188 72v16M176 66v28M212 74v12" stroke-opacity=".55"/>
</svg>
